<?xml version="1.0" standalone="no"?>
<!DOCTYPE svg PUBLIC "-//W3C//DTD SVG 20010904//EN"
 "http://www.w3.org/TR/2001/REC-SVG-20010904/DTD/svg10.dtd">
<svg version="1.0" xmlns="http://www.w3.org/2000/svg"
 width="226.000000pt" height="226.000000pt" viewBox="0 0 226.000000 226.000000"
 preserveAspectRatio="xMidYMid meet">
<metadata>
Created by potrace 1.11, written by Peter Selinger 2001-2013
</metadata>
<g transform="translate(0.000000,226.000000) scale(0.100000,-0.100000)"
fill="#000000" stroke="none">
<path d="M1563 1945 l-35 -35 7 -338 c4 -217 4 -333 -3 -327 -5 6 -69 91 -142
190 -180 243 -242 318 -314 372 -73 55 -201 117 -274 132 -77 16 -247 14 -317
-4 -153 -39 -282 -128 -363 -249 -99 -147 -123 -254 -122 -537 1 -207 6 -246
31 -262 25 -15 68 0 73 26 3 12 7 111 10 220 7 225 13 259 68 377 144 302 509
382 776 170 69 -54 124 -130 375 -515 115 -176 220 -330 233 -342 38 -35 107
-32 145 6 l29 29 0 527 c0 342 -4 533 -10 546 -14 25 -62 49 -101 49 -22 0
-41 -10 -66 -35z"/>
<path d="M598 1449 c-16 -4 -28 -5 -28 -2 0 11 -48 -54 -54 -75 -4 -12 -7
-245 -7 -517 0 -545 0 -550 61 -575 49 -20 111 -10 140 24 24 29 24 31 22 200
-1 94 -4 248 -6 341 -4 128 -2 165 7 150 6 -11 19 -29 29 -39 10 -11 18 -25
18 -32 0 -6 7 -14 15 -18 8 -3 15 -10 15 -16 0 -6 13 -25 30 -43 16 -18 30
-37 30 -44 0 -6 3 -13 8 -15 4 -2 26 -28 49 -58 24 -30 47 -60 53 -67 5 -7 10
-16 10 -22 0 -5 7 -12 16 -15 9 -4 14 -9 11 -12 -2 -3 5 -15 17 -28 11 -12 45
-48 74 -79 29 -31 57 -57 62 -57 4 0 10 -4 12 -8 5 -12 88 -66 126 -81 17 -7
32 -18 32 -23 0 -5 5 -6 10 -3 6 3 10 1 10 -5 0 -6 4 -9 8 -6 8 4 51 -5 102
-21 78 -26 279 -13 358 23 18 8 37 12 42 9 6 -3 10 -1 10 5 0 6 5 8 10 5 6 -3
10 -1 10 4 0 6 5 11 12 11 6 0 19 6 27 14 9 8 23 16 31 18 8 2 21 11 28 21 7
9 17 17 23 17 5 0 29 21 52 47 23 25 50 54 59 64 9 9 14 20 10 23 -3 3 0 6 6
6 7 0 12 7 12 15 0 8 5 15 10 15 6 0 9 3 8 8 -1 4 10 32 24 62 14 30 29 69 33
85 5 17 10 37 13 45 3 8 7 128 9 265 4 289 2 300 -61 300 -47 0 -44 10 -50
-180 -3 -77 -7 -176 -9 -220 -4 -80 -23 -165 -40 -176 -5 -3 -8 -9 -7 -13 3
-11 -22 -66 -30 -66 -4 0 -11 -11 -14 -25 -4 -14 -11 -25 -16 -25 -6 0 -10 -5
-10 -11 0 -14 -108 -119 -122 -119 -5 0 -23 -9 -39 -21 -16 -11 -29 -18 -29
-14 0 3 -10 -1 -22 -9 -33 -21 -91 -30 -183 -30 -87 1 -148 11 -153 25 -2 5
-8 7 -12 4 -12 -7 -110 44 -110 57 0 5 -4 7 -9 4 -12 -8 -151 129 -151 149 0
2 -11 16 -25 31 -14 15 -23 29 -21 31 2 3 -5 15 -16 28 -11 13 -20 26 -19 29
0 3 -11 18 -24 32 -14 15 -23 29 -21 32 3 2 -6 16 -19 30 -13 14 -22 29 -20
33 3 4 -2 10 -11 13 -8 3 -12 10 -9 16 3 5 1 10 -4 10 -6 0 -11 7 -11 15 0 8
-4 15 -8 15 -5 0 -15 12 -23 28 -8 15 -22 36 -31 46 -10 11 -18 26 -18 33 0 7
-4 13 -8 13 -5 0 -15 12 -23 28 -8 15 -16 29 -19 32 -10 10 -40 60 -38 63 2 1
-7 13 -19 27 -13 13 -23 28 -23 32 0 5 -9 18 -20 30 -11 12 -20 28 -20 35 0 7
-4 13 -9 13 -5 0 -12 9 -16 19 -5 17 -27 29 -75 44 -8 2 -27 1 -42 -4z"/>
</g>
</svg>
