<?xml version="1.0" standalone="no"?>
<!DOCTYPE svg PUBLIC "-//W3C//DTD SVG 20010904//EN"
 "http://www.w3.org/TR/2001/REC-SVG-20010904/DTD/svg10.dtd">
<svg version="1.0" xmlns="http://www.w3.org/2000/svg"
 width="226.000000pt" height="226.000000pt" viewBox="0 0 226.000000 226.000000"
 preserveAspectRatio="xMidYMid meet">
<metadata>
Created by potrace 1.11, written by Peter Selinger 2001-2013
</metadata>
<g transform="translate(0.000000,226.000000) scale(0.100000,-0.100000)"
fill="#000000" stroke="none">
<path d="M1563 1954 c-15 -15 -27 -30 -25 -35 1 -5 -1 -9 -6 -9 -4 0 -7 -78
-6 -172 1 -95 3 -173 4 -173 8 0 4 -308 -5 -312 -5 -4 -7 -3 -3 2 4 4 2 13 -5
20 -7 7 -21 25 -32 41 -11 15 -28 36 -37 46 -10 10 -18 23 -18 28 0 6 -5 10
-11 10 -5 0 -7 5 -4 10 3 6 -1 13 -9 16 -9 3 -16 12 -16 20 0 7 -8 19 -19 26
-10 7 -18 16 -17 20 0 3 -13 22 -30 42 -17 19 -29 37 -26 40 3 3 -3 8 -12 12
-9 3 -16 12 -16 20 0 7 -8 19 -18 26 -10 7 -23 20 -28 30 -16 29 -108 128
-119 128 -5 0 -16 9 -23 21 -7 12 -16 19 -19 16 -3 -3 -17 5 -31 18 -14 13
-29 22 -34 19 -4 -3 -8 0 -8 6 0 6 -4 8 -10 5 -5 -3 -10 -2 -10 3 0 9 -37 25
-52 23 -5 -1 -8 4 -8 11 0 6 -3 8 -7 5 -3 -4 -11 -2 -18 3 -6 5 -22 12 -36 14
-13 3 -24 5 -24 6 0 11 -260 17 -310 7 -16 -3 -30 -6 -30 -7 0 -1 -11 -4 -25
-6 -13 -3 -29 -9 -34 -14 -4 -4 -15 -6 -22 -3 -8 3 -14 0 -14 -6 0 -6 -3 -10
-7 -9 -14 2 -103 -43 -103 -52 0 -6 -4 -9 -9 -7 -5 1 -17 -6 -28 -15 -10 -10
-33 -30 -50 -44 -18 -14 -33 -30 -33 -34 0 -5 -13 -23 -30 -41 -16 -18 -27
-36 -25 -40 3 -4 -2 -10 -11 -13 -8 -3 -13 -10 -10 -15 3 -4 -3 -19 -14 -31
-11 -12 -17 -27 -14 -31 3 -5 1 -9 -4 -9 -5 0 -9 -7 -10 -15 -1 -8 -3 -22 -4
-30 -1 -8 -6 -15 -11 -15 -5 0 -7 -7 -3 -15 3 -8 2 -15 -2 -15 -12 0 -13 -19
-18 -304 -3 -246 -2 -271 14 -286 18 -17 62 -22 62 -7 0 4 4 6 9 2 23 -14 26
17 34 383 0 45 5 82 9 82 3 0 7 8 6 18 0 27 10 63 23 78 6 8 8 14 4 14 -4 0
-2 7 5 15 7 8 9 15 5 15 -5 0 -1 8 8 18 10 10 14 22 10 25 -3 4 -1 7 6 7 7 0
9 5 6 10 -3 6 -2 10 2 10 5 0 16 12 25 28 17 28 88 105 88 95 0 -3 8 3 17 13
10 10 25 20 33 22 8 2 18 8 21 13 3 6 12 11 20 13 8 1 24 8 37 14 12 7 22 10
22 6 0 -3 7 -1 15 6 8 7 15 9 15 5 0 -4 6 -3 12 2 7 6 21 9 30 8 10 -2 20 0
23 4 6 11 177 3 193 -9 1 -2 5 -3 10 -5 51 -14 116 -46 160 -78 48 -36 116
-97 108 -97 -6 0 15 -28 41 -55 7 -7 9 -15 6 -19 -3 -3 2 -8 11 -12 9 -3 16
-12 16 -20 0 -8 5 -14 10 -14 6 0 10 -6 10 -13 0 -7 11 -25 25 -40 14 -15 22
-27 18 -27 -4 0 0 -7 10 -14 10 -8 18 -17 18 -20 -1 -6 49 -87 60 -96 3 -3 16
-24 29 -47 13 -24 27 -43 32 -43 4 0 7 -3 6 -7 -3 -9 80 -134 95 -144 5 -3 8
-9 8 -13 -2 -13 30 -66 40 -66 6 0 8 -4 5 -8 -3 -5 6 -20 19 -34 13 -14 22
-28 19 -30 -2 -3 14 -23 35 -45 36 -36 44 -40 85 -39 47 2 112 38 101 56 -3 5
-2 11 2 13 11 7 9 1047 -2 1070 -11 26 -58 47 -104 47 -29 0 -47 -7 -68 -26z"/>
<path d="M542 1419 c-13 -16 -25 -39 -28 -51 -3 -13 -4 -245 -4 -517 0 -541 1
-547 59 -571 15 -6 48 -10 73 -9 41 2 49 7 70 39 25 40 26 75 13 528 -2 83 -2
152 2 152 10 0 53 -54 53 -66 0 -7 7 -14 15 -18 8 -3 15 -10 15 -16 0 -5 8
-19 18 -29 29 -33 42 -50 42 -56 0 -3 13 -20 30 -38 16 -18 30 -35 30 -39 0
-5 8 -17 18 -27 32 -36 42 -50 42 -60 0 -5 7 -12 16 -15 9 -4 14 -9 11 -12 -2
-3 5 -15 17 -28 118 -126 176 -181 176 -168 0 4 7 -2 16 -13 8 -11 16 -18 17
-16 3 6 91 -40 98 -51 3 -5 8 -8 10 -7 4 3 92 -18 119 -29 27 -10 226 -10 276
0 27 5 64 16 82 24 18 8 37 12 42 9 6 -3 10 -1 10 5 0 6 5 8 10 5 6 -3 10 -2
10 3 0 8 66 44 75 39 2 -1 12 8 20 21 9 12 20 22 25 22 11 0 100 89 100 101 0
5 5 9 10 9 6 0 10 6 10 13 0 7 9 23 20 35 11 12 20 24 20 27 0 3 11 29 24 57
13 29 27 67 31 83 5 17 10 37 13 45 3 8 7 128 9 265 4 287 2 299 -60 301 -33
1 -37 -2 -42 -30 -3 -17 -8 -89 -10 -161 -6 -216 -12 -302 -19 -314 -4 -6 -10
-24 -12 -38 -3 -15 -10 -30 -15 -34 -6 -3 -10 -9 -9 -13 3 -11 -22 -66 -30
-66 -4 0 -11 -11 -14 -25 -7 -26 -129 -155 -147 -155 -6 0 -24 -9 -40 -21 -16
-11 -29 -18 -29 -14 0 3 -10 -1 -22 -9 -34 -21 -83 -29 -178 -29 -97 0 -153 9
-158 23 -2 6 -8 8 -13 4 -10 -6 -73 26 -129 65 -44 31 -140 131 -140 146 0 2
-11 16 -25 31 -13 14 -22 30 -20 34 3 4 -2 11 -11 14 -8 3 -13 10 -10 15 3 5
-1 12 -10 15 -9 4 -14 9 -11 12 2 3 -6 17 -19 31 -13 14 -22 28 -20 30 2 2 -7
16 -20 30 -13 14 -21 29 -19 33 3 4 -2 11 -11 14 -8 3 -12 10 -9 16 3 5 1 10
-4 10 -6 0 -11 7 -11 15 0 8 -4 15 -8 15 -5 0 -15 12 -23 28 -8 15 -22 36 -31
46 -10 11 -18 26 -18 33 0 7 -4 13 -8 13 -5 0 -15 12 -23 28 -8 15 -16 29 -19
32 -10 10 -40 60 -38 63 2 1 -7 13 -19 27 -13 13 -23 30 -23 37 0 7 -4 13 -8
13 -8 0 -48 63 -44 68 4 5 -22 28 -46 41 -12 7 -44 11 -70 10 -38 -2 -51 -8
-70 -30z"/>
</g>
</svg>
